<svg width="118" height="48" viewBox="0 0 118 48" fill="none" xmlns="http://www.w3.org/2000/svg">
<path d="M32 11.5V6.5H86V11.5" stroke="#143D8F" stroke-width="2"/>
<path d="M32 36V42H59H86V36" stroke="#143D8F" stroke-width="2"/>
<path d="M37 9.5V2.5H81V9.5" stroke="#143D8F" stroke-width="2"/>
<path d="M37 39V46H81V39" stroke="#143D8F" stroke-width="2"/>
<path d="M12.4284 31.4535H13.853V14.2332H20.5301V12.9586H5.7561V14.2332H12.4284V31.4535ZM25.4372 31.6411C29.1019 31.6411 32.0567 29.0965 32.0567 24.9454C32.0567 20.7943 29.1019 18.1487 25.4372 18.1487C21.7676 18.1487 18.8129 20.7943 18.8129 24.9454C18.8129 29.0965 21.7676 31.6411 25.4372 31.6411ZM25.4372 30.3712C22.4824 30.3712 20.0792 28.3317 20.0792 24.9454C20.0792 21.5591 22.4824 19.3608 25.4372 19.3608C28.392 19.3608 30.7903 21.5591 30.7903 24.9454C30.7903 28.3317 28.392 30.3712 25.4372 30.3712ZM55.6471 31.4535V23.6226C55.6471 20.3662 53.3782 18.1198 50.1836 18.1198C48.1785 18.1198 46.1447 19.2069 45.3581 21.3474C44.5906 19.0193 42.5088 18.1198 40.5277 18.1198C38.8393 18.1198 37.1796 18.8365 36.2826 20.5538L36.2538 18.3844H35.0403V31.4535H36.3354V23.7044C36.3354 21.1887 38.019 19.3608 40.4989 19.3608C42.9837 19.3608 44.6961 21.1887 44.6961 23.7044V31.4535H45.9912V23.7044C45.9912 21.1887 47.7037 19.3368 50.1836 19.3368C52.6635 19.3368 54.352 21.1117 54.352 23.6226V31.4535H55.6471ZM70.5266 18.3844V21.2416C69.4425 19.2069 67.308 18.2256 65.1974 18.2256C61.5567 18.2256 58.5731 20.9241 58.5731 24.9165C58.5731 28.9138 61.5567 31.6651 65.1974 31.6651C67.308 31.6651 69.2603 30.7127 70.5266 28.6732V31.4535H71.8169C71.8169 27.0907 71.8169 22.752 71.8169 18.3844H70.5266ZM65.1974 19.4715C72.4501 19.4715 72.4501 30.3953 65.1974 30.3953C62.2426 30.3953 59.8682 28.2019 59.8682 24.9165C59.8682 21.636 62.2426 19.4715 65.1974 19.4715ZM85.0607 19.9188C83.7704 18.7019 82.1059 18.1727 80.2064 18.1727C77.5682 18.1487 75.0116 19.255 75.0355 21.8236C75.0595 24.4451 77.5682 24.9165 80.1009 25.3398C82.2403 25.6862 84.3988 26.0565 84.3508 27.9325C84.2693 30.0008 81.8661 30.4193 80.288 30.4193C78.5468 30.4193 76.5897 29.7603 75.5104 28.2019L74.5607 29.0484C75.6927 30.7897 77.9664 31.6651 80.2592 31.6651C82.5568 31.6651 85.5356 30.8955 85.6124 28.0143C85.7467 24.9743 82.5568 24.575 80.2304 24.1758C78.5995 23.8872 76.3307 23.5408 76.2731 21.7996C76.2251 20.1305 78.1774 19.3608 80.2064 19.3897C81.655 19.3897 82.9502 19.6013 84.2693 20.7654L85.0607 19.9188ZM88.4904 12.9345V31.4535H89.7568V25.0512L96.7504 31.4535H98.3861V31.3717L91.0231 24.5462L97.6186 18.4373V18.3844H95.9014L89.7568 24.0988V12.9345H88.4904ZM100.046 18.3844V31.4535H101.336V23.8343C101.336 21.4532 103.212 19.4955 105.639 19.4715C106.406 19.4715 107.169 19.6543 107.855 20.0775L108.435 19.0193C107.562 18.4902 106.613 18.2256 105.639 18.2497C103.974 18.2497 102.132 18.9375 101.312 20.7125L101.259 18.3844H100.046ZM111.683 18.3315V31.4535H110.388V18.3315H111.683ZM110.018 14.1274C110.018 15.5031 112.1 15.5031 112.1 14.1274C112.1 12.7517 110.018 12.7517 110.018 14.1274Z" fill="#143D8F"/>
<path d="M53 38.5691C53 38.6749 53.0336 38.7567 53.1007 38.824C53.1679 38.8914 53.2494 38.9251 53.3454 38.9251C53.4365 38.9251 53.518 38.8914 53.5852 38.824C53.6524 38.7567 53.6859 38.6749 53.6859 38.5691C53.6859 38.4585 53.6524 38.3671 53.5852 38.2997C53.518 38.2324 53.4365 38.1987 53.3454 38.1987C53.2494 38.1987 53.1679 38.2324 53.1007 38.2997C53.0336 38.3671 53 38.4585 53 38.5691ZM54.3575 36.9625C54.3575 37.2704 54.4006 37.5494 54.4822 37.7947C54.5637 38.0352 54.6789 38.242 54.8276 38.4104C54.9763 38.5787 55.1489 38.7038 55.3504 38.7952C55.5519 38.8818 55.7725 38.9251 56.0124 38.9251C56.2522 38.9251 56.468 38.877 56.6551 38.7808C56.8422 38.6846 57.0101 38.5499 57.1636 38.3767L56.8902 38.0833C56.7702 38.218 56.6407 38.3238 56.5016 38.3959C56.3673 38.4681 56.2042 38.5066 56.0219 38.5066C55.8397 38.5066 55.6814 38.4681 55.5375 38.3959C55.3936 38.3238 55.2689 38.218 55.1681 38.0833C55.0722 37.9486 54.9907 37.7851 54.9379 37.5975C54.8803 37.4051 54.8515 37.1934 54.8515 36.9529C54.8515 36.7172 54.8803 36.5056 54.9379 36.318C54.9954 36.1304 55.077 35.9668 55.1825 35.837C55.2832 35.7023 55.408 35.6013 55.5567 35.5291C55.7006 35.457 55.8637 35.4233 56.0459 35.4233C56.2042 35.4233 56.3481 35.457 56.468 35.5195C56.588 35.582 56.6983 35.6686 56.799 35.7744L57.0676 35.4714C56.9573 35.3463 56.8182 35.2357 56.6455 35.1443C56.4728 35.0481 56.2714 35 56.0411 35C55.7965 35 55.5759 35.0481 55.3696 35.1395C55.1633 35.2261 54.9859 35.3559 54.8372 35.5291C54.6885 35.6975 54.5685 35.9043 54.487 36.1448C54.4006 36.3853 54.3575 36.6595 54.3575 36.9625ZM59.0919 38.9251C59.3269 38.9251 59.5476 38.8818 59.7442 38.7904C59.9409 38.6942 60.1136 38.5643 60.2575 38.3911C60.4014 38.2228 60.5117 38.0159 60.5885 37.7706C60.67 37.5253 60.7084 37.2511 60.7084 36.9481C60.7084 36.6451 60.67 36.3757 60.5885 36.1352C60.5117 35.8947 60.4014 35.6927 60.2575 35.5243C60.1136 35.3559 59.9409 35.2261 59.7442 35.1395C59.5476 35.0481 59.3269 35 59.0919 35C58.852 35 58.6362 35.0481 58.4347 35.1347C58.238 35.2213 58.0702 35.3511 57.9263 35.5195C57.7872 35.6878 57.6768 35.8899 57.5953 36.1304C57.5185 36.3709 57.4802 36.6451 57.4802 36.9481C57.4802 37.2511 57.5185 37.5253 57.5953 37.7706C57.6768 38.0159 57.7872 38.2228 57.9263 38.3911C58.0702 38.5643 58.238 38.6942 58.4347 38.7904C58.6362 38.8818 58.852 38.9251 59.0919 38.9251ZM59.0919 38.5066C58.9192 38.5066 58.7705 38.4681 58.6314 38.3959C58.4971 38.3238 58.3772 38.218 58.2812 38.0833C58.1853 37.9438 58.1085 37.7803 58.0558 37.5927C57.9982 37.4003 57.9742 37.1838 57.9742 36.9481C57.9742 36.7124 57.9982 36.5008 58.0558 36.3132C58.1085 36.1256 58.1853 35.962 58.2812 35.8321C58.3772 35.7023 58.4971 35.6013 58.6314 35.5291C58.7705 35.457 58.9192 35.4233 59.0919 35.4233C59.2598 35.4233 59.4132 35.457 59.5476 35.5291C59.6819 35.6013 59.8018 35.7023 59.8977 35.8321C59.9985 35.962 60.0704 36.1256 60.128 36.3132C60.1807 36.5008 60.2047 36.7124 60.2047 36.9481C60.2047 37.1838 60.1807 37.4003 60.128 37.5927C60.0704 37.7803 59.9985 37.9438 59.8977 38.0833C59.8018 38.218 59.6819 38.3238 59.5476 38.3959C59.4132 38.4681 59.2598 38.5066 59.0919 38.5066ZM61.519 35.0721V38.8577H61.9603V36.7749C61.9603 36.6066 61.9555 36.419 61.9411 36.2122C61.922 36.0101 61.9124 35.8225 61.898 35.6542H61.9219L62.2194 36.4959L62.9533 38.4777H63.2219L63.9462 36.4959L64.2532 35.6542H64.2772C64.2628 35.8225 64.2484 36.0101 64.234 36.2122C64.2196 36.419 64.2148 36.6066 64.2148 36.7749V38.8577H64.6657V35.0721H64.1045L63.3802 37.102L63.1115 37.8765H63.0924L62.8141 37.102L62.085 35.0721H61.519Z" fill="#143D8F"/>
</svg>
